<svg width="20" height="20" viewBox="0 0 20 20" fill="none" xmlns="http://www.w3.org/2000/svg">
<g clip-path="url(#clip0_61_252)">
<g clip-path="url(#clip1_61_252)">
<path d="M19.3925 12.1509C18.1 14.2559 15.16 17.7876 10 17.7876C4.84001 17.7876 1.90001 14.2559 0.607512 12.1509C0.207952 11.5047 -0.00369263 10.7599 -0.00369263 10.0001C-0.00369263 9.2403 0.207952 8.49552 0.607512 7.84926C1.90001 5.74426 4.84001 2.2126 10 2.2126C15.16 2.2126 18.1 5.74426 19.3925 7.84926C19.7921 8.49552 20.0037 9.2403 20.0037 10.0001C20.0037 10.7599 19.7921 11.5047 19.3925 12.1509ZM17.9717 8.72176C16.8617 6.91676 14.3492 3.87927 10 3.87927C5.65085 3.87927 3.13835 6.91676 2.02835 8.72176C1.79096 9.10589 1.66522 9.54854 1.66522 10.0001C1.66522 10.4517 1.79096 10.8943 2.02835 11.2784C3.13835 13.0834 5.65085 16.1209 10 16.1209C14.3492 16.1209 16.8617 13.0868 17.9717 11.2784C18.2091 10.8943 18.3348 10.4517 18.3348 10.0001C18.3348 9.54854 18.2091 9.10589 17.9717 8.72176Z" fill="#1D262F"/>
<path d="M10 14.1667C9.17592 14.1667 8.37034 13.9224 7.68514 13.4645C6.99993 13.0067 6.46588 12.356 6.15051 11.5946C5.83515 10.8332 5.75263 9.99546 5.91341 9.1872C6.07418 8.37895 6.47101 7.63652 7.05373 7.0538C7.63645 6.47108 8.37888 6.07425 9.18714 5.91348C9.99539 5.7527 10.8332 5.83522 11.5945 6.15058C12.3559 6.46595 13.0066 7 13.4645 7.6852C13.9223 8.37041 14.1667 9.17599 14.1667 10.0001C14.1654 11.1047 13.7259 12.1638 12.9448 12.9449C12.1637 13.726 11.1047 14.1654 10 14.1667ZM10 7.50008C9.50556 7.50008 9.02221 7.6467 8.61109 7.92141C8.19996 8.19611 7.87953 8.58656 7.69031 9.04337C7.50109 9.50019 7.45159 10.0029 7.54805 10.4878C7.64451 10.9728 7.88261 11.4182 8.23224 11.7678C8.58188 12.1175 9.02733 12.3556 9.51229 12.452C9.99724 12.5485 10.4999 12.499 10.9567 12.3098C11.4135 12.1206 11.804 11.8001 12.0787 11.389C12.3534 10.9779 12.5 10.4945 12.5 10.0001C12.5 9.33704 12.2366 8.70115 11.7678 8.23231C11.2989 7.76347 10.6631 7.50008 10 7.50008Z" fill="#1D262F"/>
</g>
</g>
<defs>
<clipPath id="clip0_61_252">
<rect width="20" height="20" fill="white"/>
</clipPath>
<clipPath id="clip1_61_252">
<rect width="20" height="20" fill="white" transform="matrix(1 0 0 -1 0 20)"/>
</clipPath>
</defs>
</svg>
