<svg width="16" height="12" viewBox="0 0 16 12" fill="none" xmlns="http://www.w3.org/2000/svg">
<path d="M15.0559 4.23257L11.2342 0.410901C11.1573 0.331309 11.0654 0.267824 10.9637 0.22415C10.862 0.180476 10.7527 0.157487 10.642 0.156526C10.5314 0.155564 10.4216 0.176649 10.3192 0.218549C10.2168 0.26045 10.1238 0.322328 10.0455 0.400572C9.96728 0.478816 9.9054 0.571859 9.8635 0.674273C9.8216 0.776686 9.80052 0.886419 9.80148 0.997069C9.80244 1.10772 9.82543 1.21707 9.8691 1.31874C9.91278 1.42041 9.97626 1.51236 10.0559 1.58923L13.6075 5.14173L1.00002 5.16673C0.779007 5.16673 0.567045 5.25453 0.410765 5.41081C0.254485 5.56709 0.166687 5.77905 0.166687 6.00007C0.166687 6.22108 0.254485 6.43304 0.410765 6.58932C0.567045 6.7456 0.779007 6.8334 1.00002 6.8334L13.6567 6.80757L10.0542 10.4109C9.9746 10.4878 9.91111 10.5797 9.86744 10.6814C9.82376 10.7831 9.80077 10.8924 9.79981 11.0031C9.79885 11.1137 9.81993 11.2234 9.86184 11.3259C9.90374 11.4283 9.96562 11.5213 10.0439 11.5996C10.1221 11.6778 10.2151 11.7397 10.3176 11.7816C10.42 11.8235 10.5297 11.8446 10.6404 11.8436C10.751 11.8426 10.8604 11.8197 10.962 11.776C11.0637 11.7323 11.1556 11.6688 11.2325 11.5892L15.0542 7.76757C15.5231 7.29897 15.7867 6.66332 15.787 6.00041C15.7873 5.3375 15.5243 4.70161 15.0559 4.23257Z" fill="#151A20"/>
</svg>
