<svg width="56" height="56" viewBox="0 0 56 56" fill="none" xmlns="http://www.w3.org/2000/svg">
<circle cx="28" cy="28" r="28" fill="#5C36FF" fill-opacity="0.05"/>
<g clip-path="url(#clip0_25_1581)">
<path d="M28 28C29.1867 28 30.3467 27.6481 31.3334 26.9888C32.3201 26.3295 33.0892 25.3925 33.5433 24.2961C33.9974 23.1997 34.1162 21.9933 33.8847 20.8295C33.6532 19.6656 33.0818 18.5965 32.2426 17.7574C31.4035 16.9182 30.3344 16.3468 29.1705 16.1153C28.0067 15.8838 26.8003 16.0026 25.7039 16.4567C24.6075 16.9109 23.6705 17.6799 23.0112 18.6666C22.3519 19.6533 22 20.8133 22 22C22.0016 23.5908 22.6342 25.116 23.7591 26.2409C24.884 27.3658 26.4092 27.9984 28 28ZM28 18C28.7911 18 29.5645 18.2346 30.2223 18.6741C30.8801 19.1136 31.3928 19.7384 31.6955 20.4693C31.9983 21.2002 32.0775 22.0044 31.9231 22.7804C31.7688 23.5563 31.3878 24.269 30.8284 24.8284C30.269 25.3878 29.5563 25.7688 28.7804 25.9231C28.0044 26.0775 27.2002 25.9983 26.4693 25.6955C25.7384 25.3928 25.1136 24.8801 24.6741 24.2223C24.2346 23.5645 24 22.7911 24 22C24 20.9391 24.4214 19.9217 25.1716 19.1716C25.9217 18.4214 26.9391 18 28 18Z" fill="#5C36FF"/>
<path d="M28 30.0005C25.6139 30.0031 23.3262 30.9522 21.639 32.6395C19.9517 34.3267 19.0026 36.6144 19 39.0005C19 39.2657 19.1054 39.5201 19.2929 39.7076C19.4804 39.8951 19.7348 40.0005 20 40.0005C20.2652 40.0005 20.5196 39.8951 20.7071 39.7076C20.8946 39.5201 21 39.2657 21 39.0005C21 37.144 21.7375 35.3635 23.0503 34.0507C24.363 32.738 26.1435 32.0005 28 32.0005C29.8565 32.0005 31.637 32.738 32.9497 34.0507C34.2625 35.3635 35 37.144 35 39.0005C35 39.2657 35.1054 39.5201 35.2929 39.7076C35.4804 39.8951 35.7348 40.0005 36 40.0005C36.2652 40.0005 36.5196 39.8951 36.7071 39.7076C36.8946 39.5201 37 39.2657 37 39.0005C36.9974 36.6144 36.0483 34.3267 34.361 32.6395C32.6738 30.9522 30.3861 30.0031 28 30.0005Z" fill="#5C36FF"/>
</g>
<defs>
<clipPath id="clip0_25_1581">
<rect width="24" height="24" fill="white" transform="translate(16 16)"/>
</clipPath>
</defs>
</svg>
